<svg width="717" height="566" viewBox="0 0 717 566" fill="none" xmlns="http://www.w3.org/2000/svg">
<path d="M647.947 553.049C649.535 556.568 652.021 559.607 655.155 561.86C658.289 564.114 661.96 565.504 665.801 565.89C669.642 566.276 673.517 565.644 677.037 564.058C680.557 562.473 683.597 559.989 685.853 556.856C688.109 553.723 689.5 550.052 689.889 546.212C690.277 542.371 689.647 538.496 688.064 534.975C686.48 531.455 683.998 528.413 680.867 526.155C677.735 523.897 674.065 522.503 670.225 522.113L668 544L647.947 553.049Z" fill="#FB5859"/>
<path d="M1.19485 224.053C2.16919 226.212 3.69451 228.077 5.61762 229.46C7.54073 230.843 9.79393 231.696 12.1509 231.932C14.5079 232.169 16.8856 231.782 19.0454 230.808C21.2052 229.835 23.0709 228.311 24.4551 226.389C25.8394 224.467 26.6935 222.214 26.9316 219.857C27.1697 217.5 26.7835 215.122 25.8118 212.962C24.84 210.802 23.317 208.935 21.3955 207.55C19.474 206.164 17.2219 205.309 14.8652 205.069L13.5 218.5L1.19485 224.053Z" fill="#0C72E1"/>
<circle cx="288.5" cy="544.5" r="9.5" fill="#FFC928"/>
<path d="M691.142 72.2825C697.445 70.292 703.1 66.6494 707.518 61.7335C711.937 56.8176 714.958 50.8078 716.267 44.329C717.576 37.8503 717.126 31.139 714.963 24.8931C712.8 18.6472 709.004 13.0947 703.969 8.81295C698.933 4.53116 692.843 1.67642 686.33 0.545555C679.818 -0.585313 673.122 0.0489769 666.938 2.38248C660.753 4.71598 655.307 8.66348 651.165 13.8146C647.023 18.9656 644.337 25.1322 643.385 31.6731L661.693 34.3366C662.169 31.0661 663.512 27.9828 665.583 25.4073C667.654 22.8317 670.377 20.858 673.469 19.6912C676.561 18.5245 679.909 18.2073 683.165 18.7728C686.421 19.3382 689.467 20.7656 691.984 22.9065C694.502 25.0474 696.4 27.8236 697.482 30.9466C698.563 34.0695 698.788 37.4251 698.133 40.6645C697.479 43.9039 695.968 46.9088 693.759 49.3668C691.55 51.8247 688.723 53.646 685.571 54.6412L691.142 72.2825Z" fill="#0C72E1"/>
<circle cx="111.5" cy="427.5" r="51.5" fill="#0C72E1"/>
<circle cx="212" cy="26" r="20" fill="#FFC928"/>
</svg>
