<svg width="25" height="25" viewBox="0 0 25 25" fill="none" xmlns="http://www.w3.org/2000/svg">
<path d="M12.5204 3.22061C9.14146 3.22061 6.39541 5.96665 6.39541 9.34561V12.2958C6.39541 12.9185 6.13 13.8679 5.81354 14.3987L4.63958 16.3485C3.91479 17.5531 4.415 18.8904 5.74208 19.3396C10.1419 20.8096 14.8887 20.8096 19.2885 19.3396C20.5237 18.9312 21.0648 17.4714 20.391 16.3485L19.2171 14.3987C18.9108 13.8679 18.6454 12.9185 18.6454 12.2958V9.34561C18.6454 5.97686 15.8892 3.22061 12.5204 3.22061Z" stroke="#191D31" stroke-width="1.5" stroke-miterlimit="10" stroke-linecap="round"/>
<path d="M14.4089 3.51666C14.0925 3.42478 13.7658 3.35332 13.4289 3.31249C12.4489 3.18999 11.5098 3.26145 10.6319 3.51666C10.9279 2.76124 11.6629 2.23041 12.5204 2.23041C13.3779 2.23041 14.1129 2.76124 14.4089 3.51666Z" stroke="#191D31" stroke-width="1.5" stroke-miterlimit="10" stroke-linecap="round" stroke-linejoin="round"/>
<path d="M15.5829 19.7071C15.5829 21.3915 14.2048 22.7696 12.5204 22.7696C11.6833 22.7696 10.9075 22.4225 10.3562 21.8713C9.805 21.32 9.45792 20.5442 9.45792 19.7071" stroke="#191D31" stroke-width="1.5" stroke-miterlimit="10"/>
</svg>
