<svg width="62" height="62" viewBox="0 0 62 62" fill="none" xmlns="http://www.w3.org/2000/svg">
<circle cx="31" cy="31" r="23" fill="white"/>
<path d="M31 5.16667C16.74 5.16667 5.16666 16.74 5.16666 31C5.16666 45.26 16.74 56.8333 31 56.8333C45.26 56.8333 56.8333 45.26 56.8333 31C56.8333 16.74 45.26 5.16667 31 5.16667ZM37.8717 35.4692L34.565 37.3808L31.2583 39.2925C26.9958 41.7467 23.5083 39.7317 23.5083 34.8233V31V27.1767C23.5083 22.2425 26.9958 20.2533 31.2583 22.7075L34.565 24.6192L37.8717 26.5308C42.1342 28.985 42.1342 33.015 37.8717 35.4692Z" fill="#FFC928"/>
</svg>
